<svg width="120" height="120" viewBox="0 0 70 81" fill="none" xmlns="http://www.w3.org/2000/svg">
<g clip-path="url(#clip0_4963_5219)">
<path d="M4.59 73.6226H65.42C67.95 73.6226 70.01 75.6826 70.01 78.2126V80.9026H0V78.2126C0 75.6726 2.06 73.6226 4.59 73.6226Z" fill="#272727"/>
<path d="M20.5703 59.1426H56.6703L56.6603 59.1226H20.5803L20.5703 59.1426Z" fill="#A08F65"/>
<path d="M23.3105 44.5923H51.9805L51.9705 44.5723H23.3105V44.5923Z" fill="#A08F65"/>
<path d="M23.3105 44.5725H51.9705L47.2905 30.0425H26.0405L23.3105 44.5725Z" fill="#FFCB05"/>
<path d="M20.5801 59.1223H56.6601L51.9801 44.5923H23.3101L20.5801 59.1223Z" fill="#515151"/>
<path d="M17.8408 73.6726H61.3508L56.6708 59.1426H20.5708L17.8408 73.6726Z" fill="#FFCB05"/>
<path d="M13.2204 59.1426L8.65039 73.6726L13.2204 59.1426Z" fill="#FFCB05"/>
<path d="M26.04 30.0422H47.29L42.61 15.5122H28.77L26.04 30.0422Z" fill="#515151"/>
<path d="M31.5104 0.982422L26.9404 15.5124L31.5104 0.982422Z" fill="#FFCB05"/>
<path d="M42.6105 15.5124L37.9205 0.982422H31.5105L28.7705 15.5124H42.6105Z" fill="#FFCB05"/>
<path d="M13.2207 59.1226V59.1426H20.5707L20.5807 59.1226H13.2207Z" fill="#272727"/>
<path d="M23.31 44.5723H17.8L17.79 44.5923H23.31V44.5723Z" fill="#272727"/>
<path d="M26.0408 30.0425H22.3708L17.8008 44.5725H23.3108L26.0408 30.0425Z" fill="#F3BF26"/>
<path d="M23.3107 44.5923H17.7907L13.2207 59.1223H20.5807L23.3107 44.5923Z" fill="#414249"/>
<path d="M20.5704 59.1426H13.2204L8.65039 73.6726H17.8404L20.5704 59.1426Z" fill="#F3BF26"/>
<path d="M28.7701 15.5122H26.9401L22.3701 30.0422H26.0401L28.7701 15.5122Z" fill="#414249"/>
<path d="M28.7704 15.5124L31.5104 0.982422L26.9404 15.5124H28.7704Z" fill="#F3BF26"/>
</g>
<defs>
<clipPath id="clip0_4963_5219">
<rect width="120" height="120" fill="white" transform="translate(0 0.982422)"/>
</clipPath>
</defs>
</svg>